<svg width="24" height="24" viewBox="0 0 24 24" fill="none" xmlns="http://www.w3.org/2000/svg">
<path d="M2.80273 11.4036L2.80079 11.401C2.47006 10.9589 1.84356 10.8685 1.4013 11.1991C0.958961 11.5298 0.868445 12.1565 1.19913 12.5988L2.00006 12.0001C1.19913 12.5988 1.19988 12.5998 1.19988 12.5998L1.20111 12.6015L1.20502 12.6067L1.2185 12.6245C1.23 12.6397 1.24648 12.6613 1.26777 12.6889C1.31035 12.7442 1.37219 12.8236 1.45192 12.9237C1.6113 13.1239 1.84253 13.4073 2.13443 13.7463C2.71697 14.4228 3.54734 15.3279 4.53577 16.2363C4.87681 16.5498 5.23918 16.8659 5.61908 17.1747L3.20006 20.4001C2.86869 20.8419 2.95823 21.4687 3.40006 21.8001C3.84189 22.1314 4.46869 22.0419 4.80006 21.6001L7.23487 18.3537C7.46453 18.5016 7.69792 18.6432 7.93441 18.7769C8.88505 19.3142 9.92444 19.7453 11.0001 19.9182V23.0001C11.0001 23.5523 11.4478 24.0001 12.0001 24.0001C12.5523 24.0001 13.0001 23.5523 13.0001 23.0001V19.9182C14.0757 19.7453 15.1151 19.3142 16.0657 18.7769C16.3022 18.6432 16.5356 18.5016 16.7653 18.3537L19.2001 21.6001C19.5314 22.0419 20.1582 22.1314 20.6001 21.8001C21.0419 21.4687 21.1314 20.8419 20.8001 20.4001L18.381 17.1747C18.7609 16.8659 19.1233 16.5498 19.4643 16.2363C20.4528 15.3279 21.2832 14.4228 21.8657 13.7463C22.1576 13.4073 22.3888 13.1239 22.5482 12.9237C22.6279 12.8236 22.6898 12.7442 22.7324 12.6889C22.7536 12.6613 22.7701 12.6397 22.7816 12.6245L22.7951 12.6067L22.801 12.5988C22.801 12.5988 22.801 12.5988 22.0001 12.0001L22.801 12.5988C23.1317 12.1565 23.0412 11.5298 22.5988 11.1991C22.1566 10.8685 21.5299 10.9592 21.1991 11.4013L21.1974 11.4036L21.1882 11.4158L21.1479 11.4684C21.1115 11.5157 21.0563 11.5867 20.9836 11.678C20.8382 11.8606 20.6233 12.124 20.3501 12.4413C19.8025 13.0773 19.0267 13.9222 18.111 14.7638C17.1922 15.6082 16.1535 16.4298 15.0815 17.0358C14.0023 17.6458 12.9549 18.0001 12.0001 18.0001C11.0452 18.0001 9.99782 17.6458 8.91859 17.0358C7.84664 16.4298 6.80795 15.6082 5.88913 14.7638C4.97343 13.9222 4.19761 13.0773 3.64999 12.4413C3.3768 12.124 3.16196 11.8606 3.01654 11.678C2.94386 11.5867 2.88862 11.5157 2.85222 11.4684L2.81193 11.4158L2.80273 11.4036Z" fill="#AFAFAF"/>
</svg>
